PathFileType	4	(X/Y/Z)	3_coords_data.trc
DataRate	CameraRate	NumFrames	NumMarkers	Units	OrigDataRate	OrigDataStartFrame	OrigNumFrames
30.0	30.0	7	21	m	30.0	42	62
Frame#	Time	THUMB_TIP	THUMB_IP	THUMB_MCP	THUMB_CMC	INDEX_TIP	INDEX_DIP	INDEX_PIP	INDEX_MCP	MIDDLE_TIP	MIDDLE_DIP	MIDDLE_PIP	MIDDLE_MCP	RING_TIP	RING_DIP	RING_PIP	RING_MCP	PINKY_TIP	PINKY_DIP	PINKY_PIP	PINKY_MCP	WRIST
X1	Y1	Z1	X2	Y2	Z2	X3	Y3	Z3	X4	Y4	Z4	X5	Y5	Z5	X6	Y6	Z6	X7	Y7	Z7	X8	Y8	Z8	X9	Y9	Z9	X10	Y10	Z10	X11	Y11	Z11	X12	Y12	Z12	X13	Y13	Z13	X14	Y14	Z14	X15	Y15	Z15	X16	Y16	Z16	X17	Y17	Z17	X18	Y18	Z18	X19	Y19	Z19	X20	Y20	Z20	X21	Y21	Z21
41	1.3666666666666667	-0.09558719635009766	-0.07219390106201172	0.9182899780273438	-0.10398799896240235	-0.07940840148925782	0.9434739990234375	-0.11149500274658203	-0.07314830017089843	0.9728880004882813	-0.12050599670410156	-0.04945109939575195	0.9973699951171875	-0.10064299774169921	-0.07015370178222656	0.8970040283203125	-0.1212979965209961	-0.07500430297851562	0.9020499877929687	-0.1409040069580078	-0.07822170257568359	0.9155059814453125	-0.151843994140625	-0.07476570129394532	0.9539459838867187	-0.11496600341796875	-0.05440810012817383	0.89214697265625	-0.13585000610351564	-0.056919498443603514	0.8933270263671875	-0.15693099975585936	-0.058755401611328126	0.9086500244140625	-0.160625	-0.05499689865112305	0.9514550170898437	-0.12092400360107422	-0.03507419967651367	0.9016699829101562	-0.1405749969482422	-0.034385101318359375	0.90135498046875	-0.16127299499511719	-0.03525	0.9145869750976563	-0.15886000061035158	-0.03419900131225586	0.9528070068359376	-0.1280399932861328	-0.011752599716186524	0.8977570190429688	-0.14189100646972655	-0.01000979995727539	0.9105640258789063	-0.15210400390625	-0.010463500022888183	0.927447998046875	-0.1535989990234375	-0.013695799827575683	0.9559990234375	-0.14085099792480468	-0.030459999084472656	1.02568994140625
42	1.4	-0.09049510192871094	-0.07144200134277344	0.9200479736328125	-0.10066600036621094	-0.0774552001953125	0.9452930297851563	-0.1094800033569336	-0.07137670135498046	0.9750180053710937	-0.11918000030517578	-0.04816519927978516	0.9981539916992187	-0.09382710266113281	-0.06690070343017578	0.8979829711914062	-0.11417500305175782	-0.07161190032958985	0.9017410278320312	-0.1346510009765625	-0.07540689849853516	0.9150239868164063	-0.1490169982910156	-0.07304730224609375	0.9526649780273437	-0.10636199951171875	-0.05072529983520508	0.8914660034179688	-0.1274720001220703	-0.05332870101928711	0.8924929809570312	-0.14993600463867188	-0.05564739990234375	0.9072899780273438	-0.15532099914550782	-0.052691898345947265	0.9502160034179687	-0.11298000335693359	-0.031240699768066406	0.9015670166015625	-0.13271200561523439	-0.030959999084472656	0.901219970703125	-0.15403900146484376	-0.032194599151611325	0.9136389770507812	-0.15594700622558594	-0.032198699951171875	0.9519539794921875	-0.12062200164794921	-0.009065199851989746	0.899458984375	-0.13564700317382813	-0.007677989959716797	0.9111510009765625	-0.14708099365234376	-0.008438719749450683	0.9273140258789062	-0.15009300231933595	-0.011906399726867675	0.9557860107421875	-0.1415229949951172	-0.029311100006103517	1.026510009765625
43	1.4333333333333333	-0.08438939666748047	-0.07124019622802734	0.9216420288085938	-0.09630390167236329	-0.07596399688720704	0.9468560180664063	-0.10632900238037109	-0.0700947036743164	0.9756959838867187	-0.11815699768066407	-0.046832698822021485	0.99885498046875	-0.08725900268554687	-0.06344670104980468	0.897510009765625	-0.10764900207519532	-0.06811470031738281	0.9020369873046875	-0.12859800720214845	-0.07183889770507812	0.9143670043945312	-0.144427001953125	-0.07049440002441407	0.9517429809570312	-0.09946640014648438	-0.04696730041503906	0.8890230102539063	-0.12058799743652343	-0.04955020141601563	0.8913790283203125	-0.14335899353027343	-0.05199190139770508	0.9065040283203125	-0.15243899536132813	-0.05004399871826172	0.948843017578125	-0.10582599639892579	-0.027376699447631835	0.9005560302734374	-0.12546099853515624	-0.027112300872802735	0.900510009765625	-0.14773300170898437	-0.028899299621582032	0.912885986328125	-0.15126800537109375	-0.029573299407958983	0.9512310180664062	-0.11340000152587891	-0.005581649780273437	0.901093017578125	-0.12836900329589843	-0.004510029792785645	0.9123670043945312	-0.1412449951171875	-0.0056890201568603515	0.9274190063476563	-0.14651400756835936	-0.009540849685668946	0.9558480224609375	-0.1412220001220703	-0.028313199996948243	1.027050048828125
44	1.4666666666666666	-0.07994300079345704	-0.07147100067138672	0.9233690185546874	-0.09300430297851563	-0.07464810180664062	0.9482000122070312	-0.10419499969482422	-0.06881539916992188	0.9767839965820313	-0.11741899871826172	-0.04555139923095703	1.0003800048828124	-0.08168560028076172	-0.060083198547363284	0.8973040161132813	-0.10239800262451172	-0.06485320281982422	0.9017780151367187	-0.12339600372314453	-0.06864869689941407	0.914198974609375	-0.13974000549316407	-0.06782640075683594	0.9510440063476563	-0.09257140350341797	-0.04315219879150391	0.8881890258789062	-0.11372899627685547	-0.04585110092163086	0.89122802734375	-0.1369720001220703	-0.04859540176391602	0.9059320068359376	-0.14927999877929687	-0.04756880187988281	0.9479249877929687	-0.09917680358886719	-0.02326639938354492	0.9001790161132812	-0.1187020034790039	-0.02328499984741211	0.9005980224609375	-0.1416219940185547	-0.025507299423217774	0.9126729736328125	-0.14791099548339845	-0.02707659912109375	0.9508820190429688	-0.1072770004272461	-0.002151390075683593	0.9027039794921875	-0.12305999755859375	-0.0015885000228881832	0.9132509765625	-0.13633999633789062	-0.003106369972229004	0.9278049926757812	-0.14268600463867187	-0.007095190048217773	0.9556599731445312	-0.14152499389648437	-0.027303800582885743	1.0272900390625
45	1.5	-0.0763407974243164	-0.07245510101318359	0.924666015625	-0.09050299835205078	-0.07354759979248048	0.9493560180664062	-0.10287899780273438	-0.06775420379638672	0.9778040161132813	-0.116677001953125	-0.0445447998046875	1.0004299926757811	-0.07640249633789062	-0.05711700057983399	0.8968289794921875	-0.09705229949951172	-0.06180080032348633	0.901760986328125	-0.11755400085449219	-0.06568900299072265	0.9143939819335938	-0.1369969940185547	-0.06599099731445313	0.949718017578125	-0.08485790252685547	-0.039857101440429685	0.8879749755859375	-0.1061520004272461	-0.042426799774169924	0.891677978515625	-0.12964300537109374	-0.0452484016418457	0.9066220092773437	-0.1455260009765625	-0.045090499877929686	0.9470360107421875	-0.0920115966796875	-0.019800500869750978	0.90022802734375	-0.11115399932861328	-0.020199899673461915	0.9014650268554687	-0.13510099792480468	-0.022908199310302736	0.9128629760742187	-0.14536500549316406	-0.02476449966430664	0.9504609985351562	-0.10159300231933593	0.0009365519881248471	0.90402099609375	-0.11715399932861328	0.001017529964447021	0.914823974609375	-0.13100599670410157	-0.0008012449741363521	0.9288090209960937	-0.1402259979248047	-0.0050454001426696775	0.9555700073242187	-0.14196699523925782	-0.026559600830078123	1.02697998046875
46	1.5333333333333334	-0.074341796875	-0.07427839660644531	0.92581298828125	-0.08887870025634766	-0.07329709625244141	0.9502109985351562	-0.10160099792480469	-0.06730020141601563	0.9783300170898438	-0.11602100372314453	-0.043751701354980466	1.0011400146484375	-0.07294239807128906	-0.054556800842285154	0.8950289916992188	-0.0936050033569336	-0.05925749969482422	0.9013359985351562	-0.113947998046875	-0.06298139953613281	0.91410498046875	-0.13492799377441406	-0.0638311996459961	0.9489869995117187	-0.08093990325927734	-0.03724599838256836	0.8852050170898438	-0.10208200073242188	-0.0398125	0.8910869750976562	-0.12529399871826172	-0.04262039947509766	0.9064249877929688	-0.14277200317382813	-0.04283169937133789	0.946301025390625	-0.08815579986572265	-0.016913000106811522	0.8976810302734375	-0.10778800201416015	-0.017553300857543946	0.9011909790039062	-0.13088699340820312	-0.020313600540161132	0.91297802734375	-0.14256700134277345	-0.02257659912109375	0.9504669799804687	-0.09754969787597656	0.003381409883499145	0.90502197265625	-0.11312200164794922	0.003306319952011108	0.9155819702148438	-0.1274029998779297	0.001249029994010925	0.9294039916992187	-0.13786900329589843	-0.002976320028305053	0.9557689819335937	-0.14177200317382813	-0.02565049934387207	1.027239990234375
47	1.5666666666666667	-0.07329360198974609	-0.07484200286865235	0.9263809814453124	-0.0880271987915039	-0.073306396484375	0.9504400024414063	-0.10090000152587891	-0.0668323974609375	0.9786270141601563	-0.11519000244140624	-0.043114299774169924	1.0011900024414062	-0.07139810180664062	-0.052713401794433595	0.8921749877929688	-0.09157389831542968	-0.05743159866333008	0.9002670288085938	-0.11113800048828125	-0.06097919845581055	0.914041015625	-0.1325590057373047	-0.06190039825439453	0.949208984375	-0.07882689666748047	-0.03546540069580078	0.881875	-0.09936219787597657	-0.03795119857788086	0.8902899780273438	-0.12225	-0.040774898529052736	0.9069249877929687	-0.14003900146484374	-0.04104150009155273	0.9464019775390625	-0.08630229949951172	-0.014353099822998048	0.8953519897460938	-0.10569200134277344	-0.015462400436401368	0.9003920288085937	-0.1281719970703125	-0.0185575008392334	0.9129459838867188	-0.14051300048828125	-0.021066600799560548	0.9504860229492188	-0.0961187973022461	0.005471109867095947	0.9047930297851563	-0.11161399841308593	0.004970600128173828	0.9159210205078125	-0.1257979965209961	0.0026419200897216787	0.929718994140625	-0.13627200317382812	-0.001733680009841919	0.9563359985351563	-0.14171600341796875	-0.025023000717163086	1.0270400390625
